<?xml version="1.0" encoding="utf-8"?>
<!-- Generator: Adobe Illustrator 16.0.0, SVG Export Plug-In . SVG Version: 6.00 Build 0)  -->
<!DOCTYPE svg PUBLIC "-//W3C//DTD SVG 1.1//EN" "http://www.w3.org/Graphics/SVG/1.1/DTD/svg11.dtd">
<svg version="1.1" id="Camada_1" xmlns="http://www.w3.org/2000/svg" xmlns:xlink="http://www.w3.org/1999/xlink" x="0px" y="0px"
	 width="146.447px" height="129.617px" viewBox="46.553 -95.617 146.447 129.617"
	 enable-background="new 46.553 -95.617 146.447 129.617" xml:space="preserve">
<path fill="#FF0000" d="M116.621-15.907c-5.277-3.306-9.165-14.715-9.165-28.268c0-0.498,0.004-0.989,0.016-1.478l0.006,0.006
	c-14.678-2.306-25.286-8.628-25.556-16.102l-0.042,0.086c-3.594,4.464-5.645,9.624-5.645,15.123
	c0,16.183,17.762,29.439,40.291,30.612L116.621-15.907z M69.449-45.357c0-18.106,22.53-32.786,50.326-32.786
	s50.328,14.68,50.328,32.786c0,18.105-22.532,32.784-50.328,32.784S69.449-27.251,69.449-45.357z M119.775-73.413
	c5.366,0,9.931,8.138,11.622,19.497l0.004-0.017c10.441-1.625,17.752-5.375,17.752-9.736c0-5.855-13.154-10.595-29.378-10.595
	c-16.222,0-29.374,4.742-29.374,10.595c0,4.361,7.305,8.109,17.747,9.736l0.007,0.017C109.847-65.272,114.412-73.413,119.775-73.413
	z M123.024-15.928c22.53-1.172,40.294-14.429,40.294-30.612c0-5.499-2.053-10.658-5.643-15.123l-0.045-0.086
	c-0.271,7.473-10.875,13.795-25.556,16.102l0.006-0.006c0.01,0.489,0.014,0.98,0.014,1.478c0,13.553-3.89,24.962-9.163,28.268
	L123.024-15.928z M119.775-53.073c2.405,0,4.741-0.102,6.978-0.3l-0.004,0.002c-1.111-7.28-3.813-12.417-6.974-12.417
	c-3.158,0-5.857,5.137-6.973,12.417l-0.003-0.002C115.035-53.175,117.369-53.073,119.775-53.073z M119.775-26.113
	c4.04,0,7.334-8.406,7.513-18.951l0.021,0.006c-2.435,0.225-4.953,0.345-7.533,0.345s-5.097-0.118-7.533-0.345l0.024-0.006
	C112.441-34.519,115.735-26.113,119.775-26.113z"/>
<g>
	<path fill="#FF0000" d="M119.674,12.124c0-6.663,5.401-12.064,12.063-12.064c6.665,0,12.065,5.402,12.065,12.064
		c0,6.664-5.401,12.064-12.065,12.064C125.075,24.188,119.674,18.786,119.674,12.124z M131.737,19.764
		c3.722,0,6.737-3.422,6.737-7.642c0-4.218-3.016-7.641-6.737-7.641c-3.72,0-6.735,3.421-6.735,7.641S128.019,19.764,131.737,19.764
		z"/>
	<path fill="#FF0000" d="M157.493,5.085V23.64h-5.083V5.085h0.018h-7.109V0.89h19.266v4.194h-7.072L157.493,5.085L157.493,5.085z"/>
	<path fill="#FF0000" d="M170.733,18.521l-0.005,0.006l-1.95,5.113h-5.937l9.385-22.75h3.165h3.161l9.387,22.75h-5.938l-1.95-5.113
		l-0.005-0.006h-4.655H170.733z M175.392,14.682h3.198l-0.002,0.001l-3.175-8.326h-0.044l-3.178,8.326l-0.001-0.001H175.392z"/>
	<path fill="#FF0000" d="M63.789,5.085V23.64h-5.083V5.085h0.017h-7.109V0.89H70.88v4.194h-7.073L63.789,5.085L63.789,5.085z"/>
	<path fill="#FF0000" d="M72.182,12.124c0-6.663,5.401-12.064,12.065-12.064c6.663,0,12.065,5.402,12.065,12.064
		c0,6.664-5.402,12.064-12.065,12.064C77.583,24.188,72.182,18.786,72.182,12.124z M84.247,19.764c3.72,0,6.737-3.422,6.737-7.642
		c0-4.218-3.017-7.641-6.737-7.641c-3.72,0-6.736,3.421-6.736,7.641S80.527,19.764,84.247,19.764z"/>
	<path fill="#FF0000" d="M107.992,23.64h2.578v-8.531v-0.107l8.867-14.111h-5.936l-5.51,9.562l-5.51-9.562h-5.938l8.869,14.111
		v0.106v8.531L107.992,23.64L107.992,23.64z"/>
</g>
</svg>
